<svg width="512" height="512" viewBox="0 0 512 512" fill="none" xmlns="http://www.w3.org/2000/svg">
  <defs>
    <linearGradient id="goldBody" x1="0" y1="0" x2="512" y2="512" gradientUnits="userSpaceOnUse">
      <stop offset="0%" stop-color="#F59E0B" />
      <stop offset="25%" stop-color="#FCD34D" />
      <stop offset="50%" stop-color="#F59E0B" />
      <stop offset="75%" stop-color="#B45309" />
      <stop offset="100%" stop-color="#F59E0B" />
    </linearGradient>
    <linearGradient id="glow" x1="0" y1="0" x2="1" y2="1">
      <stop offset="0%" stop-color="white" stop-opacity="0.8"/>
      <stop offset="100%" stop-color="white" stop-opacity="0"/>
    </linearGradient>
    <filter id="shadowKey" x="-20%" y="-20%" width="140%" height="140%">
      <feDropShadow dx="10" dy="10" stdDeviation="10" flood-color="#000" flood-opacity="0.3"/>
    </filter>
  </defs>

  <g transform="rotate(45 256 256)" filter="url(#shadowKey)">
    <!-- Main Shaft -->
    <rect x="180" y="200" width="260" height="80" rx="10" fill="url(#goldBody)" />
    
    <!-- Head -->
    <circle cx="160" cy="240" r="100" fill="url(#goldBody)" />
    <circle cx="160" cy="240" r="70" fill="#1F2937" /> <!-- Inner Hole Dark -->
    <circle cx="160" cy="240" r="60" fill="#2D3748" /> <!-- Inner Hole Light -->
    
    <!-- Detailed Teeth -->
    <path d="M320 280 V340 C320 350 330 350 330 340 V280" fill="url(#goldBody)"/>
    <path d="M380 280 V320 C380 330 390 330 390 320 V280" fill="url(#goldBody)"/>
    
    <!-- Digital Circuit Patterns on Key -->
    <path d="M180 220 H400" stroke="#FCD34D" stroke-width="2" stroke-opacity="0.6"/>
    <path d="M180 260 H360" stroke="#B45309" stroke-width="2" stroke-opacity="0.4"/>
    
    <!-- Electronic Chip in Head -->
    <rect x="130" y="210" width="60" height="60" rx="4" fill="#FCD34D" fill-opacity="0.2"/>
    <circle cx="145" cy="225" r="4" fill="#FCD34D"/>
    <circle cx="175" cy="225" r="4" fill="#FCD34D"/>
    <circle cx="145" cy="255" r="4" fill="#FCD34D"/>
    <circle cx="175" cy="255" r="4" fill="#FCD34D"/>

    <!-- Shine -->
    <path d="M100 200 Q160 140 220 200" stroke="url(#glow)" stroke-width="4" fill="none" opacity="0.6"/>
  </g>
</svg>
